M48
METRIC,LZ,000.000
;FILE_FORMAT=3:3
;TYPE=PLATED
;Layer: PTH_Through
;EasyEDA v6.4.31, 2022-02-28 12:57:49
;375ee36b19e9497eac9c01c2f8449273,7b35ab87edb5478c89a92b32cd25319b,10
;Gerber Generator version 0.2
;Holesize 1 = 0.915 mm
T01C0.915
;Holesize 2 = 1.000 mm
T02C1.000
;Holesize 3 = 4.801 mm
T03C4.801
%
G05
G90
T01
X009614Y037573
X009614Y035033
X009614Y032493
X009614Y029953
X009614Y027413
X009614Y024873
X009614Y022333
X009614Y019793
X041872Y019793
X041872Y022333
X041872Y024873
X041872Y027413
X041872Y029953
X041872Y032493
X041872Y035033
X041872Y037573
T02
X021080Y010414
X022100Y012954
X023120Y010414
X024140Y012954
X019040Y010414
X020060Y012954
T03
X010118Y011420G85X010123Y011420
X041998Y011420G85X042003Y011420
X010118Y067210G85X010123Y067210
X041998Y067210G85X042003Y067210
X026058Y067210G85X026063Y067210
M30
