G04 Layer: TopSilkscreenLayer*
G04 EasyEDA v6.4.31, 2022-02-28 12:57:49*
G04 375ee36b19e9497eac9c01c2f8449273,7b35ab87edb5478c89a92b32cd25319b,10*
G04 Gerber Generator version 0.2*
G04 Scale: 100 percent, Rotated: No, Reflected: No *
G04 Dimensions in millimeters *
G04 leading zeros omitted , absolute positions ,4 integer and 5 decimal *
%FSLAX45Y45*%
%MOMM*%

%ADD10C,0.2540*%
%ADD16C,0.2032*%
%ADD17C,0.1524*%

%LPD*%
D16*
X1807971Y2948178D02*
G01*
X1789429Y2939034D01*
X1771142Y2920492D01*
X1761744Y2901950D01*
X1752600Y2874263D01*
X1752600Y2828289D01*
X1761744Y2800350D01*
X1771142Y2782062D01*
X1789429Y2763520D01*
X1807971Y2754376D01*
X1845055Y2754376D01*
X1863344Y2763520D01*
X1881886Y2782062D01*
X1891029Y2800350D01*
X1900428Y2828289D01*
X1900428Y2874263D01*
X1891029Y2901950D01*
X1881886Y2920492D01*
X1863344Y2939034D01*
X1845055Y2948178D01*
X1807971Y2948178D01*
X1961388Y2883662D02*
G01*
X1961388Y2689605D01*
X1961388Y2855976D02*
G01*
X1979929Y2874263D01*
X1998218Y2883662D01*
X2025904Y2883662D01*
X2044445Y2874263D01*
X2062988Y2855976D01*
X2072131Y2828289D01*
X2072131Y2809747D01*
X2062988Y2782062D01*
X2044445Y2763520D01*
X2025904Y2754376D01*
X1998218Y2754376D01*
X1979929Y2763520D01*
X1961388Y2782062D01*
X2133091Y2828289D02*
G01*
X2244090Y2828289D01*
X2244090Y2846578D01*
X2234691Y2865120D01*
X2225547Y2874263D01*
X2207006Y2883662D01*
X2179320Y2883662D01*
X2160777Y2874263D01*
X2142490Y2855976D01*
X2133091Y2828289D01*
X2133091Y2809747D01*
X2142490Y2782062D01*
X2160777Y2763520D01*
X2179320Y2754376D01*
X2207006Y2754376D01*
X2225547Y2763520D01*
X2244090Y2782062D01*
X2305050Y2883662D02*
G01*
X2305050Y2754376D01*
X2305050Y2846578D02*
G01*
X2332736Y2874263D01*
X2351024Y2883662D01*
X2378709Y2883662D01*
X2397252Y2874263D01*
X2406650Y2846578D01*
X2406650Y2754376D01*
X2467609Y2948178D02*
G01*
X2467609Y2754376D01*
X2467609Y2948178D02*
G01*
X2541270Y2754376D01*
X2615184Y2948178D02*
G01*
X2541270Y2754376D01*
X2615184Y2948178D02*
G01*
X2615184Y2754376D01*
X2676143Y2948178D02*
G01*
X2750058Y2754376D01*
X2823972Y2948178D02*
G01*
X2750058Y2754376D01*
X2884931Y2837434D02*
G01*
X3051302Y2837434D01*
X3112261Y2948178D02*
G01*
X3112261Y2754376D01*
X3241547Y2948178D02*
G01*
X3241547Y2754376D01*
X3112261Y2855976D02*
G01*
X3241547Y2855976D01*
X3431793Y2948178D02*
G01*
X3339338Y2754376D01*
X3302508Y2948178D02*
G01*
X3431793Y2948178D01*
X1087881Y5251450D02*
G01*
X1072387Y5243829D01*
X1056894Y5228336D01*
X1049020Y5212842D01*
X1041400Y5189728D01*
X1041400Y5151120D01*
X1049020Y5128005D01*
X1056894Y5112512D01*
X1072387Y5097018D01*
X1087881Y5089397D01*
X1118615Y5089397D01*
X1134110Y5097018D01*
X1149604Y5112512D01*
X1157223Y5128005D01*
X1165097Y5151120D01*
X1165097Y5189728D01*
X1157223Y5212842D01*
X1149604Y5228336D01*
X1134110Y5243829D01*
X1118615Y5251450D01*
X1087881Y5251450D01*
X1216152Y5197347D02*
G01*
X1216152Y5035295D01*
X1216152Y5174234D02*
G01*
X1231392Y5189728D01*
X1246886Y5197347D01*
X1270254Y5197347D01*
X1285494Y5189728D01*
X1300987Y5174234D01*
X1308862Y5151120D01*
X1308862Y5135626D01*
X1300987Y5112512D01*
X1285494Y5097018D01*
X1270254Y5089397D01*
X1246886Y5089397D01*
X1231392Y5097018D01*
X1216152Y5112512D01*
X1359662Y5151120D02*
G01*
X1452371Y5151120D01*
X1452371Y5166613D01*
X1444752Y5182107D01*
X1437131Y5189728D01*
X1421637Y5197347D01*
X1398523Y5197347D01*
X1383029Y5189728D01*
X1367536Y5174234D01*
X1359662Y5151120D01*
X1359662Y5135626D01*
X1367536Y5112512D01*
X1383029Y5097018D01*
X1398523Y5089397D01*
X1421637Y5089397D01*
X1437131Y5097018D01*
X1452371Y5112512D01*
X1503426Y5197347D02*
G01*
X1503426Y5089397D01*
X1503426Y5166613D02*
G01*
X1526794Y5189728D01*
X1542034Y5197347D01*
X1565402Y5197347D01*
X1580642Y5189728D01*
X1588515Y5166613D01*
X1588515Y5089397D01*
X1639570Y5251450D02*
G01*
X1639570Y5089397D01*
X1639570Y5251450D02*
G01*
X1701292Y5089397D01*
X1763013Y5251450D02*
G01*
X1701292Y5089397D01*
X1763013Y5251450D02*
G01*
X1763013Y5089397D01*
X1814068Y5251450D02*
G01*
X1876044Y5089397D01*
X1937765Y5251450D02*
G01*
X1876044Y5089397D01*
X2169668Y5251450D02*
G01*
X2107691Y5089397D01*
X2169668Y5251450D02*
G01*
X2231390Y5089397D01*
X2131059Y5143245D02*
G01*
X2208275Y5143245D01*
X2375154Y5251450D02*
G01*
X2375154Y5089397D01*
X2375154Y5174234D02*
G01*
X2359659Y5189728D01*
X2344165Y5197347D01*
X2321052Y5197347D01*
X2305558Y5189728D01*
X2290063Y5174234D01*
X2282443Y5151120D01*
X2282443Y5135626D01*
X2290063Y5112512D01*
X2305558Y5097018D01*
X2321052Y5089397D01*
X2344165Y5089397D01*
X2359659Y5097018D01*
X2375154Y5112512D01*
X2518918Y5197347D02*
G01*
X2518918Y5089397D01*
X2518918Y5174234D02*
G01*
X2503424Y5189728D01*
X2487929Y5197347D01*
X2464815Y5197347D01*
X2449322Y5189728D01*
X2433827Y5174234D01*
X2426208Y5151120D01*
X2426208Y5135626D01*
X2433827Y5112512D01*
X2449322Y5097018D01*
X2464815Y5089397D01*
X2487929Y5089397D01*
X2503424Y5097018D01*
X2518918Y5112512D01*
X2569972Y5197347D02*
G01*
X2569972Y5035295D01*
X2569972Y5174234D02*
G01*
X2585211Y5189728D01*
X2600706Y5197347D01*
X2623820Y5197347D01*
X2639313Y5189728D01*
X2654808Y5174234D01*
X2662681Y5151120D01*
X2662681Y5135626D01*
X2654808Y5112512D01*
X2639313Y5097018D01*
X2623820Y5089397D01*
X2600706Y5089397D01*
X2585211Y5097018D01*
X2569972Y5112512D01*
X2736850Y5251450D02*
G01*
X2736850Y5120131D01*
X2744470Y5097018D01*
X2759963Y5089397D01*
X2775458Y5089397D01*
X2713481Y5197347D02*
G01*
X2767584Y5197347D01*
X2826511Y5151120D02*
G01*
X2919222Y5151120D01*
X2919222Y5166613D01*
X2911347Y5182107D01*
X2903727Y5189728D01*
X2888234Y5197347D01*
X2865120Y5197347D01*
X2849625Y5189728D01*
X2834131Y5174234D01*
X2826511Y5151120D01*
X2826511Y5135626D01*
X2834131Y5112512D01*
X2849625Y5097018D01*
X2865120Y5089397D01*
X2888234Y5089397D01*
X2903727Y5097018D01*
X2919222Y5112512D01*
X2970022Y5197347D02*
G01*
X2970022Y5089397D01*
X2970022Y5151120D02*
G01*
X2977895Y5174234D01*
X2993390Y5189728D01*
X3008884Y5197347D01*
X3031997Y5197347D01*
X3263645Y5251450D02*
G01*
X3248406Y5251450D01*
X3232911Y5243829D01*
X3225038Y5220715D01*
X3225038Y5089397D01*
X3201924Y5197347D02*
G01*
X3256025Y5197347D01*
X3353308Y5197347D02*
G01*
X3338068Y5189728D01*
X3322574Y5174234D01*
X3314700Y5151120D01*
X3314700Y5135626D01*
X3322574Y5112512D01*
X3338068Y5097018D01*
X3353308Y5089397D01*
X3376675Y5089397D01*
X3391915Y5097018D01*
X3407409Y5112512D01*
X3415284Y5135626D01*
X3415284Y5151120D01*
X3407409Y5174234D01*
X3391915Y5189728D01*
X3376675Y5197347D01*
X3353308Y5197347D01*
X3466338Y5197347D02*
G01*
X3466338Y5089397D01*
X3466338Y5151120D02*
G01*
X3473958Y5174234D01*
X3489452Y5189728D01*
X3504945Y5197347D01*
X3528059Y5197347D01*
X3697986Y5251450D02*
G01*
X3697986Y5089397D01*
X3697986Y5251450D02*
G01*
X3798570Y5251450D01*
X3697986Y5174234D02*
G01*
X3759961Y5174234D01*
X3697986Y5089397D02*
G01*
X3798570Y5089397D01*
X3849370Y5251450D02*
G01*
X3911345Y5089397D01*
X3973068Y5251450D02*
G01*
X3911345Y5089397D01*
X4039615Y5251450D02*
G01*
X4124706Y5251450D01*
X4078224Y5189728D01*
X4101338Y5189728D01*
X4116831Y5182107D01*
X4124706Y5174234D01*
X4132325Y5151120D01*
X4132325Y5135626D01*
X4124706Y5112512D01*
X4109211Y5097018D01*
X4085843Y5089397D01*
X4062729Y5089397D01*
X4039615Y5097018D01*
X4031741Y5104637D01*
X4024122Y5120131D01*
X1441450Y4668773D02*
G01*
X1428750Y4662423D01*
X1416050Y4649723D01*
X1409700Y4630420D01*
X1409700Y4617720D01*
X1416050Y4598670D01*
X1428750Y4585970D01*
X1441450Y4579620D01*
X1460500Y4579620D01*
X1473454Y4585970D01*
X1486154Y4598670D01*
X1492504Y4617720D01*
X1492504Y4630420D01*
X1486154Y4649723D01*
X1473454Y4662423D01*
X1460500Y4668773D01*
X1441450Y4668773D01*
X1585213Y4713223D02*
G01*
X1572513Y4713223D01*
X1559813Y4706873D01*
X1553463Y4687823D01*
X1553463Y4579620D01*
X1534413Y4668773D02*
G01*
X1578863Y4668773D01*
X1703578Y4713223D02*
G01*
X1703578Y4579620D01*
X1703578Y4649723D02*
G01*
X1690878Y4662423D01*
X1678178Y4668773D01*
X1659128Y4668773D01*
X1646428Y4662423D01*
X1633728Y4649723D01*
X1627378Y4630420D01*
X1627378Y4617720D01*
X1633728Y4598670D01*
X1646428Y4585970D01*
X1659128Y4579620D01*
X1678178Y4579620D01*
X1690878Y4585970D01*
X1703578Y4598670D01*
X1745742Y4713223D02*
G01*
X1745742Y4579620D01*
X1794002Y4611370D02*
G01*
X1787652Y4605020D01*
X1794002Y4598670D01*
X1800352Y4605020D01*
X1794002Y4611370D01*
X1861565Y4713223D02*
G01*
X1861565Y4605020D01*
X1867915Y4585970D01*
X1880615Y4579620D01*
X1893315Y4579620D01*
X1842515Y4668773D02*
G01*
X1886965Y4668773D01*
X1935225Y4668773D02*
G01*
X1960879Y4579620D01*
X1986279Y4668773D02*
G01*
X1960879Y4579620D01*
X1986279Y4668773D02*
G01*
X2011679Y4579620D01*
X2037079Y4668773D02*
G01*
X2011679Y4579620D01*
X2177034Y4713223D02*
G01*
X2177034Y4579620D01*
X2177034Y4713223D02*
G01*
X2234438Y4713223D01*
X2253488Y4706873D01*
X2259838Y4700523D01*
X2266188Y4687823D01*
X2266188Y4675123D01*
X2259838Y4662423D01*
X2253488Y4656073D01*
X2234438Y4649723D01*
X2177034Y4649723D01*
X2221738Y4649723D02*
G01*
X2266188Y4579620D01*
X2308352Y4687823D02*
G01*
X2321052Y4694173D01*
X2340102Y4713223D01*
X2340102Y4579620D01*
X2486406Y4681473D02*
G01*
X2486406Y4687823D01*
X2492756Y4700523D01*
X2499106Y4706873D01*
X2511806Y4713223D01*
X2537459Y4713223D01*
X2550159Y4706873D01*
X2556509Y4700523D01*
X2562859Y4687823D01*
X2562859Y4675123D01*
X2556509Y4662423D01*
X2543809Y4643373D01*
X2480056Y4579620D01*
X2569209Y4579620D01*
X2649220Y4713223D02*
G01*
X2630170Y4706873D01*
X2617470Y4687823D01*
X2611120Y4656073D01*
X2611120Y4637023D01*
X2617470Y4605020D01*
X2630170Y4585970D01*
X2649220Y4579620D01*
X2662174Y4579620D01*
X2681224Y4585970D01*
X2693924Y4605020D01*
X2700274Y4637023D01*
X2700274Y4656073D01*
X2693924Y4687823D01*
X2681224Y4706873D01*
X2662174Y4713223D01*
X2649220Y4713223D01*
X2748534Y4681473D02*
G01*
X2748534Y4687823D01*
X2754884Y4700523D01*
X2761234Y4706873D01*
X2774188Y4713223D01*
X2799588Y4713223D01*
X2812288Y4706873D01*
X2818638Y4700523D01*
X2824988Y4687823D01*
X2824988Y4675123D01*
X2818638Y4662423D01*
X2805938Y4643373D01*
X2742184Y4579620D01*
X2831338Y4579620D01*
X2879597Y4681473D02*
G01*
X2879597Y4687823D01*
X2885947Y4700523D01*
X2892552Y4706873D01*
X2905252Y4713223D01*
X2930652Y4713223D01*
X2943352Y4706873D01*
X2949702Y4700523D01*
X2956052Y4687823D01*
X2956052Y4675123D01*
X2949702Y4662423D01*
X2937002Y4643373D01*
X2873247Y4579620D01*
X2962402Y4579620D01*
X3118865Y4738623D02*
G01*
X3004311Y4535170D01*
X3199129Y4713223D02*
G01*
X3180079Y4706873D01*
X3167379Y4687823D01*
X3161029Y4656073D01*
X3161029Y4637023D01*
X3167379Y4605020D01*
X3180079Y4585970D01*
X3199129Y4579620D01*
X3211829Y4579620D01*
X3230879Y4585970D01*
X3243579Y4605020D01*
X3250184Y4637023D01*
X3250184Y4656073D01*
X3243579Y4687823D01*
X3230879Y4706873D01*
X3211829Y4713223D01*
X3199129Y4713223D01*
X3304793Y4713223D02*
G01*
X3374897Y4713223D01*
X3336543Y4662423D01*
X3355593Y4662423D01*
X3368547Y4656073D01*
X3374897Y4649723D01*
X3381247Y4630420D01*
X3381247Y4617720D01*
X3374897Y4598670D01*
X3361943Y4585970D01*
X3342893Y4579620D01*
X3323843Y4579620D01*
X3304793Y4585970D01*
X3298443Y4592320D01*
X3292093Y4605020D01*
X3537711Y4738623D02*
G01*
X3423158Y4535170D01*
X3617975Y4713223D02*
G01*
X3598672Y4706873D01*
X3585972Y4687823D01*
X3579622Y4656073D01*
X3579622Y4637023D01*
X3585972Y4605020D01*
X3598672Y4585970D01*
X3617975Y4579620D01*
X3630675Y4579620D01*
X3649725Y4585970D01*
X3662425Y4605020D01*
X3668775Y4637023D01*
X3668775Y4656073D01*
X3662425Y4687823D01*
X3649725Y4706873D01*
X3630675Y4713223D01*
X3617975Y4713223D01*
X3710686Y4687823D02*
G01*
X3723640Y4694173D01*
X3742690Y4713223D01*
X3742690Y4579620D01*
D17*
X1143000Y382015D02*
G01*
X1143000Y273050D01*
X1143000Y382015D02*
G01*
X1210563Y382015D01*
X1143000Y330200D02*
G01*
X1184655Y330200D01*
X1143000Y273050D02*
G01*
X1210563Y273050D01*
X1244854Y382015D02*
G01*
X1286510Y273050D01*
X1327912Y382015D02*
G01*
X1286510Y273050D01*
X1372615Y382015D02*
G01*
X1429765Y382015D01*
X1398523Y340360D01*
X1414271Y340360D01*
X1424686Y335279D01*
X1429765Y330200D01*
X1435100Y314452D01*
X1435100Y304037D01*
X1429765Y288544D01*
X1419352Y278129D01*
X1403857Y273050D01*
X1388110Y273050D01*
X1372615Y278129D01*
X1367536Y283210D01*
X1362202Y293623D01*
D10*
X809000Y1826900D02*
G01*
X4365000Y1826900D01*
X4365000Y4265300D01*
X4390400Y6297300D01*
X809000Y6297300D01*
X809000Y1852300D01*
X809000Y1826900D01*
X2769001Y671408D02*
G01*
X2768998Y211406D01*
X1549001Y211406D02*
G01*
X1548998Y671408D01*
X1548998Y1511406D02*
G01*
X2768998Y1511406D01*
X1548998Y211404D02*
G01*
X2768998Y211406D01*
X1548998Y951407D02*
G01*
X1548996Y1511411D01*
X2769001Y1511409D02*
G01*
X2769001Y951407D01*
M02*
